<!DOCTYPE svg PUBLIC "-//W3C//DTD SVG 1.1//EN" "http://www.w3.org/Graphics/SVG/1.1/DTD/svg11.dtd">
<!-- Uploaded to: SVG Repo, www.svgrepo.com, Transformed by: SVG Repo Mixer Tools -->
<svg fill="#84baec" version="1.1" id="Capa_1" xmlns="http://www.w3.org/2000/svg" xmlns:xlink="http://www.w3.org/1999/xlink" width="800px" height="800px" viewBox="0 0 44.552 44.552" xml:space="preserve">
<g id="SVGRepo_bgCarrier" stroke-width="0"/>
<g id="SVGRepo_tracerCarrier" stroke-linecap="round" stroke-linejoin="round"/>
<g id="SVGRepo_iconCarrier"> <g> <g> <path d="M22.276,0C9.993,0,0,9.993,0,22.276c0,12.283,9.993,22.276,22.276,22.276c12.283,0,22.276-9.993,22.276-22.276 C44.552,9.993,34.559,0,22.276,0z M22.276,38.553C13.301,38.553,6,31.251,6,22.277S13.301,6,22.276,6s16.276,7.302,16.276,16.276 S31.25,38.553,22.276,38.553z"/> <path d="M22.276,8.403c-7.65,0-13.874,6.224-13.874,13.874S14.626,36.15,22.276,36.15S36.15,29.927,36.15,22.277 S29.925,8.403,22.276,8.403z M22.276,30.15c-4.341,0-7.874-3.533-7.874-7.875c0-4.342,3.532-7.874,7.874-7.874 c4.341,0,7.875,3.532,7.875,7.874C30.15,26.617,26.617,30.15,22.276,30.15z"/> <circle cx="22.276" cy="22.277" r="4.061"/> </g> </g> </g>
</svg>